PathFileType	4	(X/Y/Z)	Run_200 02
DataRate	CameraRate	NumFrames	NumMarkers	Units	OrigDataRate	OrigDataStartFrame	OrigNumFrames
100	100	4	42	mm	100	98	128
Frame#	Time	LPSI			RPSI			RTH1			RTH2			RTH3			LTH1			LTH2			LTH3			RTB1			RTB2			RTB3			LTB1			LTB2			LTB3			RCAL			RTOE			RMT5			LCAL			LTOE			LMT5			LACR			RACR			CLAV			C7			RUA1			RUA2			RUA3			RLEL			RMEL			LUA1			LUA2			LUA3			LLEL			LMEL			RFAsuperior			RFAradius			RFAulna			LFAsuperior			LFAradius			LFAulna			RASI			LASI			
		X1	Y1	Z1	X2	Y2	Z2	X3	Y3	Z3	X4	Y4	Z4	X5	Y5	Z5	X6	Y6	Z6	X7	Y7	Z7	X8	Y8	Z8	X9	Y9	Z9	X10	Y10	Z10	X11	Y11	Z11	X12	Y12	Z12	X13	Y13	Z13	X14	Y14	Z14	X15	Y15	Z15	X16	Y16	Z16	X17	Y17	Z17	X18	Y18	Z18	X19	Y19	Z19	X20	Y20	Z20	X21	Y21	Z21	X22	Y22	Z22	X23	Y23	Z23	X24	Y24	Z24	X25	Y25	Z25	X26	Y26	Z26	X27	Y27	Z27	X28	Y28	Z28	X29	Y29	Z29	X30	Y30	Z30	X31	Y31	Z31	X32	Y32	Z32	X33	Y33	Z33	X34	Y34	Z34	X35	Y35	Z35	X36	Y36	Z36	X37	Y37	Z37	X38	Y38	Z38	X39	Y39	Z39	X40	Y40	Z40	X41	Y41	Z41	X42	Y42	Z42	

81	1.61	628.864341	1060.807282	-506.863063	624.285532	1061.909603	-422.662305	757.43658	865.718677	-266.994231	845.099078	744.060843	-280.494031	797.259283	625.597262	-299.888967	771.448527	867.109796	-640.50009	842.019644	755.234581	-616.648897	768.839941	617.186462	-625.3329629999999	861.730948	383.308124	-364.922269	792.850644	293.340736	-316.096837	791.715472	194.519361	-379.770467	723.259401	408.582441	-575.123752	626.87362	419.785157	-640.9990790000001	534.578572	321.008114	-575.455868	632.3379190000001	83.699911	-403.003862	869.564575	67.938765	-379.566877	829.421843	51.309495	-291.439338	359.997933	371.690051	-556.268705	421.228739	149.360201	-582.457974	374.26559	154.666181	-660.544311	802.211742	1523.396539	-596.813995	739.993823	1488.470003	-264.221434	846.627234	1458.831486	-395.194091	720.629642	1542.633085	-450.6551	653.304876	1385.469217	-197.808588	575.5294270000001	1327.731042	-242.29474	591.841794	1284.493993	-180.63134	557.415124	1196.588181	-161.280858	535.4085679999999	1181.887405	-240.905572	768.829883	1434.440157	-703.8029	698.773013	1360.100788	-716.520184	755.954248	1331.919697	-767.349779	761.85599	1251.151512	-808.560462	691.581632	1220.157439	-779.741057	618.017076	1140.828097	-162.094489	815.382015	1108.819179	-220.369867	776.489816	1047.987736	-216.970612	835.679947	1179.940019	-732.725964	895.907744	1166.182843	-587.554547	880.910106	1105.789664	-617.401599	804.780843	995.587329	-319.831415	819.924715	986.89345	-576.834398	
82	1.62	626.307019	1058.036693	-506.181263	622.8347230000001	1059.444652	-421.981832	755.0797700000001	861.2504750000001	-267.781596	842.4518409999999	739.839815	-280.555262	793.448251	621.195254	-299.582919	771.117015	864.037618	-640.048165	846.896791	754.454511	-616.092136	778.459792	614.526881	-624.9377919999999	852.466878	377.545188	-364.741282	780.024758	290.422329	-316.497344	775.204772	191.874609	-380.373037	737.555975	407.814704	-575.537571	640.75803	419.599987	-640.861798	547.458722	321.718198	-575.408953	612.434599	84.175473	-403.611747	849.7492549999999	67.870715	-379.804074	809.123884	51.487936	-291.508449	371.863747	372.879523	-556.836714	435.43228	151.289785	-583.944202	388.935806	156.348512	-662.40089	801.01372	1518.532019	-595.639906	741.03397	1482.340681	-262.291185	846.853761	1453.658588	-394.285095	720.987678	1538.799369	-448.639833	658.36368	1376.199447	-195.666053	579.941355	1316.798982	-237.806313	598.754219	1273.756955	-177.623494	566.945771	1184.924592	-158.135958	543.114003	1170.160456	-237.04731	763.9344129999999	1430.832201	-702.874028	692.564554	1357.057492	-713.662102	747.757755	1329.21471	-767.400248	751.941746	1248.590313	-808.932827	681.625388	1218.88621	-779.806134	628.814659	1130.415268	-160.775805	825.119721	1102.181914	-223.058671	787.1433960000001	1040.842547	-219.875223	824.937994	1172.944526	-736.39052	887.651512	1151.587258	-593.503163	869.766074	1093.183996	-625.0355489999999	804.126741	990.718315	-320.229993	818.9166729999999	981.6671	-578.0853969999999	
83	1.63	624.1510929999999	1055.734595	-506.164092	620.885996	1057.448769	-421.74832	752.262352	858.0524349999999	-267.945092	838.71585	736.1705930000001	-280.183443	788.4844399999999	617.601685	-298.712152	769.2358819999999	861.435468	-639.789581	851.385163	754.814556	-615.499967	787.949601	613.248696	-624.627334	841.935249	372.581734	-363.275671	766.658878	288.392049	-315.934665	758.5476159999999	190.178197	-380.137394	751.611747	407.831039	-575.6646909999999	654.96099	419.854633	-640.887124	561.291931	322.073382	-575.556889	592.8252220000001	85.320976	-403.664919	830.297404	67.930993	-379.869297	788.991793	51.487369	-291.284181	384.43722	372.610264	-557.5382969999999	451.596988	151.977646	-584.872225	405.567663	156.769161	-663.699459	800.190777	1514.646319	-594.7032809999999	742.595543	1477.381115	-260.632322	847.205032	1449.482001	-393.544796	721.380438	1535.668435	-446.794657	663.299236	1369.03455	-194.016861	584.71716	1307.71218	-234.111168	606.215617	1264.685779	-174.988201	576.896495	1174.839789	-155.451131	551.344284	1160.111808	-233.745998	759.2641139999999	1428.591423	-702.240168	686.557624	1355.754156	-710.53575	738.97241	1328.357443	-767.612792	741.397688	1247.981357	-809.8845240000001	671.080819	1219.523327	-780.120268	640.057559	1121.656576	-160.088338	835.3473300000001	1098.186319	-226.693953	798.552537	1036.23184	-223.418612	813.272971	1167.811401	-740.675898	877.754695	1139.446781	-599.912841	857.195262	1082.89262	-632.967534	802.975187	986.84979	-321.294065	817.483874	977.436413	-578.996066	
84	1.64	622.788168	1053.895961	-506.70019	618.870796	1055.945931	-421.981801	748.897787	856.158824	-267.248656	833.7706920000001	732.888994	-279.162684	782.175001	614.821941	-297.520098	766.396514	859.380348	-639.779487	855.220409	756.4666999999999	-615.270094	797.277273	613.488007	-624.437326	830.226352	368.772413	-361.06829	752.988762	286.979023	-314.943479	741.81237	189.283286	-379.534863	765.158271	408.584394	-575.498186	669.127833	420.587053	-640.965941	575.843467	322.055088	-575.7850110000001	573.562311	87.237021	-403.470756	810.996767	67.878508	-379.838242	769.0437429999999	51.366065	-290.956681	397.425915	370.715444	-558.319917	469.681592	151.413147	-585.363922	424.120331	155.937758	-664.564441	799.508277	1512.046727	-594.017103	744.563022	1473.813591	-259.177046	847.686875	1446.280225	-392.99644	721.476702	1533.263186	-445.19407	667.830324	1363.734387	-192.716997	589.593851	1300.60368	-230.948403	614.0422579999999	1257.424878	-172.696412	587.124551	1166.547234	-153.335424	559.976794	1151.987169	-231.089958	754.748337	1427.98923	-701.9191949999999	680.694313	1356.785072	-707.9385590000001	729.9289199999999	1329.506276	-767.825699	730.313591	1249.518888	-811.327404	659.927037	1222.404463	-780.4631000000001	651.45275	1114.797259	-160.077784	845.784597	1097.121106	-231.216494	810.552418	1034.337859	-227.453456	800.686686	1164.703777	-745.451354	866.550557	1130.380033	-606.562831	843.415938	1075.493057	-640.804024	801.311431	983.959429	-322.383	815.649738	974.7079220000001	-579.496048	
